<svg width="1200" height="800" viewBox="0 0 1200 800" fill="none" xmlns="http://www.w3.org/2000/svg">
  <rect width="1200" height="800" rx="42" fill="#0f172a"/>
  <rect x="54" y="54" width="1092" height="692" rx="34" fill="#f8fafc"/>
  <rect x="92" y="96" width="1016" height="72" rx="20" fill="#dbeafe"/>
  <text x="124" y="142" font-family="Arial, Helvetica, sans-serif" font-size="30" font-weight="700" fill="#0f172a">Solar Field Sales Intelligence Tracker</text>
  <text x="124" y="225" font-family="Arial, Helvetica, sans-serif" font-size="52" font-weight="700" fill="#0f172a">Stats Graph</text>
  <text x="124" y="275" font-family="Arial, Helvetica, sans-serif" font-size="24" fill="#475569">Weekly averages and all-time performance trends</text>
  <g opacity="0.95">
    <rect x="124" y="330" width="210" height="130" rx="22" fill="#ffffff" stroke="#cbd5e1"/>
    <text x="150" y="378" font-family="Arial" font-size="22" font-weight="700" fill="#0f172a">Demo metric</text>
    <text x="150" y="425" font-family="Arial" font-size="44" font-weight="700" fill="#2563eb">--</text>
    <rect x="364" y="330" width="210" height="130" rx="22" fill="#ffffff" stroke="#cbd5e1"/>
    <text x="390" y="378" font-family="Arial" font-size="22" font-weight="700" fill="#0f172a">Status</text>
    <text x="390" y="425" font-family="Arial" font-size="30" font-weight="700" fill="#16a34a">Redacted</text>
    <rect x="604" y="330" width="380" height="130" rx="22" fill="#ffffff" stroke="#cbd5e1"/>
    <text x="630" y="378" font-family="Arial" font-size="22" font-weight="700" fill="#0f172a">Privacy-safe asset</text>
    <text x="630" y="420" font-family="Arial" font-size="21" fill="#475569">Real names, phone numbers, and notes removed.</text>
  </g>
  <rect x="124" y="510" width="860" height="32" rx="16" fill="#bfdbfe"/>
  <rect x="124" y="566" width="720" height="32" rx="16" fill="#dbeafe"/>
  <rect x="124" y="622" width="940" height="32" rx="16" fill="#e2e8f0"/>
  <rect x="124" y="684" width="392" height="34" rx="17" fill="#0f172a"/>
  <text x="150" y="708" font-family="Arial" font-size="18" font-weight="700" fill="#ffffff">DEMO / REDACTED SCREENSHOT</text>
</svg>